HIERARCHY
ROOT Hips
{
	OFFSET 0.000000 83.214638 0.000000
	CHANNELS 6 Xposition Yposition Zposition Xrotation Yrotation Zrotation
	JOINT Pelvis
	{
		OFFSET 0.000000 0.000000 0.000000
		CHANNELS 3 Xrotation Yrotation Zrotation
		JOINT LeftUpLeg
		{
			OFFSET 8.479700 -4.795502 -0.379100
			CHANNELS 3 Xrotation Yrotation Zrotation
			JOINT LeftLeg
			{
				OFFSET 0.024144 -32.555107 0.112900
				CHANNELS 3 Xrotation Yrotation Zrotation
				JOINT LeftFoot
				{
					OFFSET -0.024144 -32.638630 -3.012600
					CHANNELS 3 Xrotation Yrotation Zrotation
					JOINT LeftToeBase
					{
						OFFSET 0.970200 -13.225400 11.864200
						CHANNELS 3 Xrotation Yrotation Zrotation
						End Site
						{
							OFFSET 0.000000 12.319262 0.000000
						}
					}
					JOINT LFootTongue
					{
						OFFSET 1.142400 -1.059800 6.665200
						CHANNELS 3 Xrotation Yrotation Zrotation
						End Site
						{
							OFFSET 0.000000 12.319262 0.000000
						}
					}
				}
				JOINT LeftPantLeg
				{
					OFFSET 0.918482 -16.533964 -2.284700
					CHANNELS 3 Xrotation Yrotation Zrotation
					End Site
					{
						OFFSET 0.350399 24.744368 0.000000
					}
				}
			}
		}
		JOINT RightUpLeg
		{
			OFFSET -8.479700 -4.795502 -0.379100
			CHANNELS 3 Xrotation Yrotation Zrotation
			JOINT RightLeg
			{
				OFFSET -0.023144 -32.555092 0.112900
				CHANNELS 3 Xrotation Yrotation Zrotation
				JOINT RightFoot
				{
					OFFSET 0.023144 -32.638641 -3.012700
					CHANNELS 3 Xrotation Yrotation Zrotation
					JOINT RightToeBase
					{
						OFFSET -0.970200 -13.225400 11.864200
						CHANNELS 3 Xrotation Yrotation Zrotation
						End Site
						{
							OFFSET 0.000000 12.319244 0.000000
						}
					}
					JOINT RFootTongue
					{
						OFFSET -1.142200 -1.059800 6.665200
						CHANNELS 3 Xrotation Yrotation Zrotation
						End Site
						{
							OFFSET 0.000000 12.319243 0.000000
						}
					}
				}
				JOINT RightPantLeg
				{
					OFFSET -0.919482 -16.533978 -2.284800
					CHANNELS 3 Xrotation Yrotation Zrotation
					End Site
					{
						OFFSET -0.350400 24.744419 0.000000
					}
				}
			}
		}
	}
	JOINT Spine
	{
		OFFSET 0.000000 7.722000 1.166200
		CHANNELS 3 Xrotation Yrotation Zrotation
		JOINT Spine1
		{
			OFFSET 0.000000 12.024101 0.248800
			CHANNELS 3 Xrotation Yrotation Zrotation
			JOINT Spine2
			{
				OFFSET 0.000000 11.502998 -0.491200
				CHANNELS 3 Xrotation Yrotation Zrotation
				JOINT Neck
				{
					OFFSET 0.000000 18.430702 -3.123100
					CHANNELS 3 Xrotation Yrotation Zrotation
					JOINT Head
					{
						OFFSET 0.000000 9.051102 1.034000
						CHANNELS 3 Xrotation Yrotation Zrotation
						JOINT HairB
						{
							OFFSET 0.208400 24.786102 24.822300
							CHANNELS 3 Xrotation Yrotation Zrotation
							End Site
							{
								OFFSET 0.000000 32.263779 0.000000
							}
						}
						JOINT HairA
						{
							OFFSET -7.081100 24.428299 23.196600
							CHANNELS 3 Xrotation Yrotation Zrotation
							End Site
							{
								OFFSET 0.000000 32.263779 0.000000
							}
						}
						JOINT Hat
						{
							OFFSET 16.728800 15.048294 -15.439601
							CHANNELS 3 Xrotation Yrotation Zrotation
							End Site
							{
								OFFSET 0.000000 32.263779 0.000000
							}
						}
					}
				}
				JOINT LeftShoulder
				{
					OFFSET 6.197800 13.665199 -4.064700
					CHANNELS 3 Xrotation Yrotation Zrotation
					JOINT LeftArm
					{
						OFFSET 7.778100 -0.187103 -1.709300
						CHANNELS 3 Xrotation Yrotation Zrotation
						JOINT LeftForeArm
						{
							OFFSET 22.049376 0.000000 0.000000
							CHANNELS 3 Xrotation Yrotation Zrotation
							JOINT LeftHand
							{
								OFFSET 23.009392 0.000000 0.000000
								CHANNELS 3 Xrotation Yrotation Zrotation
								JOINT LeftHandThumb1
								{
									OFFSET 3.507191 -2.063065 3.133727
									CHANNELS 3 Xrotation Yrotation Zrotation
									JOINT LeftHandThumb2
									{
										OFFSET 3.101337 -1.790558 1.790558
										CHANNELS 3 Xrotation Yrotation Zrotation
										JOINT LeftHandThumb3
										{
											OFFSET 3.058640 -1.765907 1.765906
											CHANNELS 3 Xrotation Yrotation Zrotation
											End Site
											{
												OFFSET -0.415260 3.926476 -0.049563
											}
										}
									}
								}
								JOINT LeftHandIndex1
								{
									OFFSET 11.334419 -0.901459 3.706815
									CHANNELS 3 Xrotation Yrotation Zrotation
									JOINT LeftHandIndex2
									{
										OFFSET 3.283112 0.000000 0.000000
										CHANNELS 3 Xrotation Yrotation Zrotation
										JOINT LeftHandIndex3
										{
											OFFSET 3.323853 0.000000 0.000000
											CHANNELS 3 Xrotation Yrotation Zrotation
											End Site
											{
												OFFSET -1.135597 3.097809 0.402452
											}
										}
									}
								}
								JOINT LeftHandMiddle1
								{
									OFFSET 11.335861 0.000000 0.000000
									CHANNELS 3 Xrotation Yrotation Zrotation
									JOINT LeftHandMiddle2
									{
										OFFSET 3.410492 0.000000 0.000000
										CHANNELS 3 Xrotation Yrotation Zrotation
										JOINT LeftHandMiddle3
										{
											OFFSET 3.312172 0.000000 0.000000
											CHANNELS 3 Xrotation Yrotation Zrotation
											End Site
											{
												OFFSET -1.150200 3.080154 0.400270
											}
										}
									}
								}
								JOINT LeftHandRing1
								{
									OFFSET 11.514786 -0.013176 -3.003090
									CHANNELS 3 Xrotation Yrotation Zrotation
									JOINT LeftHandRing2
									{
										OFFSET 3.053307 0.000000 0.000000
										CHANNELS 3 Xrotation Yrotation Zrotation
										JOINT LeftHandRing3
										{
											OFFSET 3.295807 0.000000 0.000000
											CHANNELS 3 Xrotation Yrotation Zrotation
											End Site
											{
												OFFSET -1.281006 3.013344 0.375733
											}
										}
									}
								}
								JOINT LeftHandPinky1
								{
									OFFSET 10.518692 -0.960396 -5.730441
									CHANNELS 3 Xrotation Yrotation Zrotation
									JOINT LeftHandPinky2
									{
										OFFSET 2.861649 0.000000 0.000000
										CHANNELS 3 Xrotation Yrotation Zrotation
										JOINT LeftHandPinky3
										{
											OFFSET 2.863380 0.000000 0.000000
											CHANNELS 3 Xrotation Yrotation Zrotation
											End Site
											{
												OFFSET -0.843597 2.711159 0.369971
											}
										}
									}
								}
							}
							JOINT LSleeve
							{
								OFFSET 6.676277 -0.344902 -1.011730
								CHANNELS 3 Xrotation Yrotation Zrotation
								End Site
								{
									OFFSET 0.000000 14.885353 0.000000
								}
							}
						}
					}
				}
				JOINT RightShoulder
				{
					OFFSET -6.197800 13.665199 -4.064700
					CHANNELS 3 Xrotation Yrotation Zrotation
					JOINT RightArm
					{
						OFFSET -7.778100 -0.187103 -1.709300
						CHANNELS 3 Xrotation Yrotation Zrotation
						JOINT RightForeArm
						{
							OFFSET -22.049376 0.000000 0.000000
							CHANNELS 3 Xrotation Yrotation Zrotation
							JOINT RightHand
							{
								OFFSET -23.009392 0.000000 0.000000
								CHANNELS 3 Xrotation Yrotation Zrotation
								JOINT RightHandThumb1
								{
									OFFSET -3.507191 -2.063065 3.133727
									CHANNELS 3 Xrotation Yrotation Zrotation
									JOINT RightHandThumb2
									{
										OFFSET -3.101337 -1.790558 1.790558
										CHANNELS 3 Xrotation Yrotation Zrotation
										JOINT RightHandThumb3
										{
											OFFSET -3.058640 -1.765907 1.765906
											CHANNELS 3 Xrotation Yrotation Zrotation
											End Site
											{
												OFFSET 0.415260 3.926476 -0.049563
											}
										}
									}
								}
								JOINT RightHandIndex1
								{
									OFFSET -11.334419 -0.901459 3.706815
									CHANNELS 3 Xrotation Yrotation Zrotation
									JOINT RightHandIndex2
									{
										OFFSET -3.283112 0.000000 0.000000
										CHANNELS 3 Xrotation Yrotation Zrotation
										JOINT RightHandIndex3
										{
											OFFSET -3.323853 0.000000 0.000000
											CHANNELS 3 Xrotation Yrotation Zrotation
											End Site
											{
												OFFSET 1.135597 3.097809 0.402452
											}
										}
									}
								}
								JOINT RightHandMiddle1
								{
									OFFSET -11.335861 0.000000 0.000000
									CHANNELS 3 Xrotation Yrotation Zrotation
									JOINT RightHandMiddle2
									{
										OFFSET -3.410492 0.000000 0.000000
										CHANNELS 3 Xrotation Yrotation Zrotation
										JOINT RightHandMiddle3
										{
											OFFSET -3.312172 0.000000 0.000000
											CHANNELS 3 Xrotation Yrotation Zrotation
											End Site
											{
												OFFSET 1.150200 3.080154 0.400270
											}
										}
									}
								}
								JOINT RightHandRing1
								{
									OFFSET -11.514786 -0.013176 -3.003090
									CHANNELS 3 Xrotation Yrotation Zrotation
									JOINT RightHandRing2
									{
										OFFSET -3.053307 0.000000 0.000000
										CHANNELS 3 Xrotation Yrotation Zrotation
										JOINT RightHandRing3
										{
											OFFSET -3.295807 0.000000 0.000000
											CHANNELS 3 Xrotation Yrotation Zrotation
											End Site
											{
												OFFSET 1.281006 3.013344 0.375733
											}
										}
									}
								}
								JOINT RightHandPinky1
								{
									OFFSET -10.518692 -0.960396 -5.730441
									CHANNELS 3 Xrotation Yrotation Zrotation
									JOINT RightHandPinky2
									{
										OFFSET -2.861649 0.000000 0.000000
										CHANNELS 3 Xrotation Yrotation Zrotation
										JOINT RightHandPinky3
										{
											OFFSET -2.863380 0.000000 0.000000
											CHANNELS 3 Xrotation Yrotation Zrotation
											End Site
											{
												OFFSET 0.843597 2.711159 0.369971
											}
										}
									}
								}
							}
							JOINT RSleeve
							{
								OFFSET -6.676277 -0.344902 -1.011730
								CHANNELS 3 Xrotation Yrotation Zrotation
								End Site
								{
									OFFSET 0.000000 14.885353 0.000000
								}
							}
						}
					}
				}
				JOINT Backpack
				{
					OFFSET 0.000000 -2.471497 36.677502
					CHANNELS 3 Xrotation Yrotation Zrotation
					End Site
					{
						OFFSET 0.000000 20.427315 0.000000
					}
				}
				JOINT Hood
				{
					OFFSET 0.000000 18.754097 -10.431000
					CHANNELS 3 Xrotation Yrotation Zrotation
					JOINT Hood1
					{
						OFFSET 0.000000 -5.011002 -7.685901
						CHANNELS 3 Xrotation Yrotation Zrotation
						End Site
						{
							OFFSET 0.000000 9.175140 0.000000
						}
					}
				}
				JOINT LHoodieString
				{
					OFFSET 5.250500 16.397697 3.089900
					CHANNELS 3 Xrotation Yrotation Zrotation
					JOINT LHoodieString1
					{
						OFFSET 0.257700 -6.364304 3.694600
						CHANNELS 3 Xrotation Yrotation Zrotation
						JOINT LHoodieString2
						{
							OFFSET 0.000000 -9.643799 2.679100
							CHANNELS 3 Xrotation Yrotation Zrotation
							End Site
							{
								OFFSET 0.000000 10.009018 0.000000
							}
						}
					}
				}
				JOINT RHoodieString
				{
					OFFSET -5.250500 16.397697 3.089900
					CHANNELS 3 Xrotation Yrotation Zrotation
					JOINT RHoodieString1
					{
						OFFSET -0.257700 -6.364304 3.694600
						CHANNELS 3 Xrotation Yrotation Zrotation
						JOINT RHoodieString2
						{
							OFFSET 0.000000 -9.643799 2.679100
							CHANNELS 3 Xrotation Yrotation Zrotation
							End Site
							{
								OFFSET 0.000000 10.009018 0.000000
							}
						}
					}
				}
			}
			JOINT LBackpack_Strap
			{
				OFFSET 15.223200 -7.719803 -6.610900
				CHANNELS 3 Xrotation Yrotation Zrotation
				End Site
				{
					OFFSET 0.000000 16.040596 0.000000
				}
			}
			JOINT RBackpack_Strap
			{
				OFFSET -15.223000 -7.719803 -6.610900
				CHANNELS 3 Xrotation Yrotation Zrotation
				End Site
				{
					OFFSET 0.000000 16.040596 0.000000
				}
			}
		}
	}
	JOINT BoyFacialAnim_Joint
	{
		OFFSET 1.000000 -82.208099 -1.550900
		CHANNELS 3 Xrotation Yrotation Zrotation
		End Site
		{
			OFFSET 0.000000 30.012791 0.000000
		}
	}
}
MOTION
Frames: 4
Frame Time: 0.033333
-0.093158 72.468597 -0.632439 -14.105827 4.551974 -0.320189 0.000001 -0.000001 -0.000000 -19.279645 -2.205793 14.170146 58.150250 -0.402710 0.374198 -24.411267 -1.509364 -11.774687 0.000000 -0.000001 -0.000000 0.000000 -0.000001 -0.000000 -0.000003 -0.000001 -0.000002 -15.740697 -9.794490 -15.694236 57.735125 0.101132 -0.385129 -26.972373 -3.746731 10.498049 0.000000 0.000000 0.000000 0.000000 0.000000 0.000000 0.000001 -0.000001 -0.000001 20.019334 -0.034546 0.809809 6.967089 -0.338070 0.675294 6.967315 -0.337866 0.674353 -12.249459 -1.248218 -0.495995 -16.116728 -1.754206 -0.002254 -0.000000 -0.000000 -0.000000 -0.000000 -0.000000 -0.000000 -0.000000 -0.000000 -0.000000 3.082217 -9.945120 -6.811323 -13.959270 -7.908214 -60.295271 69.634311 -63.509114 71.597116 17.167868 -2.491244 -13.648302 2.689276 3.159888 6.593329 -0.080941 21.143648 -2.540004 0.000001 -0.000000 0.000002 -10.621165 2.937297 -19.267714 1.669111 6.188697 -21.755667 -0.000001 0.000000 -0.000002 -13.823040 9.936949 -22.469205 6.048997 4.246402 -31.221963 0.000001 -0.000000 0.000000 -10.744665 8.325288 -36.571073 3.038188 0.221622 -39.078705 -0.000000 -0.000001 -0.000002 -11.942407 9.095571 -39.265456 4.640671 -6.164091 -45.289301 0.000002 -0.000001 0.000001 -0.000001 -0.000001 0.000001 8.709542 -2.418523 18.823141 -21.494481 12.934336 56.855492 76.344125 65.516991 -70.724567 6.443792 -2.140699 3.544994 2.694436 -3.160171 -6.583867 -0.079171 -21.146003 2.540870 0.000002 0.000002 -0.000001 -10.621209 -2.937111 19.269089 1.668960 -6.188790 21.755269 -0.000003 0.000001 0.000004 -13.688494 -10.244134 24.164217 6.044758 -4.250365 31.223346 0.000001 0.000000 0.000001 -10.744589 -8.325842 36.570004 3.042382 -0.220466 39.078750 -0.000000 -0.000002 0.000004 -11.872851 -9.179265 39.252001 4.640932 6.162594 45.288829 -0.000000 -0.000001 -0.000002 0.000001 -0.000001 -0.000001 0.000001 0.000000 0.000000 0.000001 0.000000 0.000000 0.000001 0.000000 0.000000 0.000001 0.000000 0.000000 0.000001 0.000000 0.000000 -0.000001 0.000000 0.000000 0.000001 0.000000 0.000000 0.000001 0.000000 0.000000 -0.000001 0.000000 0.000000 0.000000 -0.000000 0.000000 0.000000 -0.000000 0.000000 0.000001 -0.000001 -0.000000 
-0.074956 72.461777 -0.637413 -14.047963 4.597783 -0.349122 -0.000000 0.000000 0.000000 -19.397167 -2.179934 14.205439 58.202494 -0.539162 0.373189 -24.420904 -1.476787 -11.692154 -0.000000 -0.000001 0.000000 -0.000000 -0.000001 0.000000 -0.000001 0.000001 0.000001 -15.797083 -9.822697 -15.688198 57.734701 0.103120 -0.385033 -26.964001 -3.764595 10.512406 -0.000000 -0.000000 -0.000000 -0.000000 -0.000000 -0.000000 0.000001 -0.000001 0.000000 20.019343 -0.034096 0.812623 6.967762 -0.333988 0.674076 6.967984 -0.333704 0.672075 -12.339812 -1.259015 -0.511593 -16.061070 -1.772782 0.024099 -0.000001 0.000000 0.000000 -0.000001 0.000000 0.000000 -0.000001 0.000000 0.000000 3.081505 -9.932723 -6.899786 -13.772136 -8.303073 -59.856588 69.210560 -63.491212 71.193691 17.161974 -2.546404 -13.762101 2.843736 3.755993 6.771129 -0.770428 19.209922 -2.488546 0.000001 -0.000001 -0.000000 -11.271546 1.302796 -15.505450 1.424468 5.551972 -17.730270 -0.000001 0.000001 -0.000005 -14.321398 8.535456 -19.931544 5.513427 3.887925 -27.908903 -0.000001 -0.000002 -0.000004 -10.734824 7.300056 -34.231774 2.630257 -0.392171 -35.470709 -0.000000 0.000004 -0.000003 -11.758231 8.260808 -37.125285 4.322546 -6.494799 -43.471921 0.000000 0.000001 0.000002 0.000001 0.000000 0.000001 8.739790 -2.465330 18.929302 -21.199618 13.256777 56.475583 76.163883 65.580348 -70.597334 6.440272 -2.094185 3.595602 2.684924 -3.126739 -6.575406 -0.271181 -20.426825 2.250004 -0.000003 -0.000002 0.000004 -10.925252 -2.140294 16.541892 1.491005 -5.724728 18.914802 -0.000001 -0.000001 0.000003 -13.991227 -9.467891 21.606991 5.700134 -3.821554 28.537087 0.000001 -0.000002 0.000005 -10.911726 -7.639134 33.676709 2.742892 0.160237 36.738491 -0.000000 -0.000002 0.000002 -12.003655 -8.605892 36.648968 4.260995 6.522129 43.011030 0.000000 0.000002 -0.000001 0.000002 -0.000001 -0.000000 0.000003 -0.000000 -0.000000 0.000003 -0.000000 -0.000000 0.000003 -0.000000 -0.000000 0.000003 -0.000000 -0.000000 0.000003 -0.000000 -0.000000 0.000001 0.000000 -0.000000 0.000003 -0.000000 -0.000000 0.000003 -0.000000 -0.000000 0.000001 0.000000 -0.000000 -0.000000 -0.000000 0.000000 -0.000000 -0.000000 0.000000 -0.000000 0.000000 0.000000 
-0.035992 72.463371 -0.609550 -14.042765 4.700203 -0.344425 0.000001 0.000000 -0.000000 -19.411720 -2.225303 14.154613 58.233496 -0.573368 0.372822 -24.453851 -1.480874 -11.639724 -0.000000 0.000000 -0.000000 -0.000000 0.000000 0.000000 -0.000001 0.000001 -0.000001 -15.739710 -9.894606 -15.740255 57.688071 0.099450 -0.384638 -26.971587 -3.782124 10.561550 0.000000 -0.000000 -0.000000 0.000000 -0.000000 -0.000000 0.000000 -0.000000 -0.000000 20.021755 -0.034402 0.808794 6.977816 -0.325596 0.664433 6.978043 -0.325380 0.661028 -12.616685 -1.310840 -0.527832 -15.787572 -1.817843 0.025407 0.000000 0.000000 0.000000 0.000000 0.000000 0.000000 0.000000 0.000000 0.000000 3.089953 -9.968823 -6.840616 -13.142229 -9.459940 -58.568640 68.458528 -63.706240 70.544680 17.163022 -2.865855 -14.185319 3.029049 4.480033 6.985267 -1.661946 16.835576 -2.468866 0.000001 -0.000001 0.000003 -11.959983 -0.876236 -10.789239 1.176335 4.680381 -12.432959 0.000000 -0.000004 -0.000002 -14.862514 6.731712 -16.741041 4.859613 3.321897 -23.585745 0.000001 -0.000002 -0.000000 -10.616286 5.970872 -31.214115 2.173806 -1.258491 -30.829801 0.000003 -0.000007 -0.000007 -11.450506 7.133088 -34.257784 3.918142 -6.960406 -41.054959 0.000000 0.000001 -0.000002 -0.000001 0.000000 -0.000001 8.761120 -2.565050 18.941641 -20.443547 13.957699 55.550782 76.088772 65.933810 -70.542959 6.436972 -1.958730 3.996288 2.664869 -3.056398 -6.557587 -0.558242 -19.470964 1.931769 0.000000 0.000000 0.000002 -11.340739 -1.068237 13.129814 1.290248 -5.085694 15.097390 -0.000000 0.000004 -0.000001 -14.354829 -8.450597 18.506211 5.277407 -3.241922 25.051544 0.000003 -0.000003 -0.000001 -11.034067 -6.672231 30.117504 2.384061 0.686245 33.707503 0.000002 0.000000 0.000004 -12.068463 -7.742470 33.349427 3.802670 7.000835 40.163534 0.000001 0.000002 0.000001 0.000001 0.000000 -0.000003 0.000000 0.000000 -0.000000 0.000000 0.000000 -0.000000 0.000000 0.000000 -0.000000 0.000000 0.000000 -0.000000 0.000000 0.000000 -0.000000 -0.000001 0.000000 0.000000 0.000000 0.000000 -0.000000 0.000000 0.000000 -0.000000 -0.000001 0.000000 0.000000 0.000001 -0.000000 -0.000000 0.000001 -0.000000 -0.000000 0.000001 0.000000 -0.000000 
0.001445 72.489548 -0.543373 -14.073087 4.871609 -0.316819 0.000001 0.000000 -0.000000 -19.311523 -2.346215 14.047839 58.181061 -0.551799 0.372667 -24.478396 -1.495705 -11.616323 0.000000 -0.000000 0.000000 0.000000 -0.000000 0.000000 -0.000002 -0.000000 -0.000000 -15.544407 -10.008730 -15.791561 57.548701 0.104816 -0.382491 -26.983996 -3.857783 10.611849 0.000000 0.000002 -0.000000 0.000000 0.000002 -0.000000 0.000001 -0.000002 -0.000001 20.021405 -0.020120 0.807754 6.979991 -0.290166 0.652440 6.980282 -0.290651 0.647076 -12.655366 -1.453473 -0.540543 -15.752950 -1.939057 -0.008744 -0.000000 -0.000000 -0.000000 -0.000000 -0.000000 -0.000000 -0.000000 -0.000000 -0.000000 3.065992 -10.097435 -6.449460 -11.567991 -11.730440 -55.979431 65.753152 -64.570430 67.822966 17.055609 -3.888528 -14.403756 3.205641 5.182584 7.192954 -2.552470 14.547792 -2.469771 0.000002 0.000001 -0.000001 -12.424302 -3.080032 -6.237885 1.018384 3.805942 -7.279023 -0.000003 -0.000003 0.000001 -15.261940 4.926753 -13.679575 4.268340 2.696776 -19.386648 0.000003 0.000000 0.000004 -10.434772 4.685854 -28.276377 1.802890 -2.164566 -26.323134 0.000000 0.000002 -0.000002 -11.115627 6.036619 -31.457112 3.544950 -7.439884 -38.700149 -0.000000 -0.000001 -0.000000 -0.000001 -0.000000 0.000001 8.764859 -2.748730 18.669180 -18.578787 14.943814 53.540675 75.831410 67.486811 -70.381725 6.393109 -1.799471 4.962874 2.644619 -2.985365 -6.539490 -0.840994 -18.542727 1.626413 -0.000003 0.000001 -0.000001 -11.711503 0.014182 9.829218 1.140911 -4.446563 11.377835 0.000003 -0.000001 0.000002 -14.679277 -7.429151 15.513622 4.911123 -2.641818 21.664069 0.000003 0.000001 0.000002 -11.115266 -5.706846 26.667533 2.067158 1.231497 30.760836 0.000001 0.000003 0.000001 -12.091233 -6.841076 30.146737 3.382323 7.501003 37.399295 -0.000000 0.000001 -0.000001 -0.000001 0.000000 0.000001 0.000003 -0.000000 0.000000 0.000003 -0.000000 0.000000 0.000003 -0.000000 0.000000 0.000003 -0.000000 0.000000 0.000003 -0.000000 0.000000 0.000002 0.000000 -0.000000 0.000003 -0.000000 0.000000 0.000003 -0.000000 0.000000 0.000002 0.000000 -0.000000 0.000000 0.000000 0.000000 0.000000 0.000000 0.000000 0.000001 0.000000 -0.000000 
